<?xml version="1.0" encoding="UTF-8" standalone="no"?><!-- Generator: Gravit.io --><svg xmlns="http://www.w3.org/2000/svg" xmlns:xlink="http://www.w3.org/1999/xlink" style="isolation:isolate" viewBox="410 675 900 236" width="900pt" height="236pt"><g><path d=" M 410 675 L 431.5 680.2 C 453 685.3 496 695.7 538.8 705.7 C 581.7 715.7 624.3 725.3 667.2 732 C 710 738.7 753 742.3 795.8 742.3 C 838.7 742.3 881.3 738.7 924.2 728.7 C 967 718.7 1010 702.3 1052.8 693.2 C 1095.7 684 1138.3 682 1181.2 685.3 C 1224 688.7 1267 697.3 1288.5 701.7 L 1310 706 L 1310 911 L 1288.5 911 C 1267 911 1224 911 1181.2 911 C 1138.3 911 1095.7 911 1052.8 911 C 1010 911 967 911 924.2 911 C 881.3 911 838.7 911 795.8 911 C 753 911 710 911 667.2 911 C 624.3 911 581.7 911 538.8 911 C 496 911 453 911 431.5 911 L 410 911 L 410 675 Z " fill="rgb(116,198,157)"/><path d=" M 410 774 L 431.5 772.7 C 453 771.3 496 768.7 538.8 757.3 C 581.7 746 624.3 726 667.2 719.3 C 710 712.7 753 719.3 795.8 733.3 C 838.7 747.3 881.3 768.7 924.2 777.5 C 967 786.3 1010 782.7 1052.8 781.3 C 1095.7 780 1138.3 781 1181.2 769.5 C 1224 758 1267 734 1288.5 722 L 1310 710 L 1310 911 L 1288.5 911 C 1267 911 1224 911 1181.2 911 C 1138.3 911 1095.7 911 1052.8 911 C 1010 911 967 911 924.2 911 C 881.3 911 838.7 911 795.8 911 C 753 911 710 911 667.2 911 C 624.3 911 581.7 911 538.8 911 C 496 911 453 911 431.5 911 L 410 911 L 410 774 Z " fill="rgb(85,151,120)"/><path d=" M 410 754 L 431.5 753.7 C 453 753.3 496 752.7 538.8 758 C 581.7 763.3 624.3 774.7 667.2 777.2 C 710 779.7 753 773.3 795.8 777.5 C 838.7 781.7 881.3 796.3 924.2 802 C 967 807.7 1010 804.3 1052.8 796.8 C 1095.7 789.3 1138.3 777.7 1181.2 769.2 C 1224 760.7 1267 755.3 1288.5 752.7 L 1310 750 L 1310 911 L 1288.5 911 C 1267 911 1224 911 1181.2 911 C 1138.3 911 1095.7 911 1052.8 911 C 1010 911 967 911 924.2 911 C 881.3 911 838.7 911 795.8 911 C 753 911 710 911 667.2 911 C 624.3 911 581.7 911 538.8 911 C 496 911 453 911 431.5 911 L 410 911 L 410 754 Z " fill="rgb(57,107,85)"/><path d=" M 410 801 L 431.5 804 C 453 807 496 813 538.8 812.7 C 581.7 812.3 624.3 805.7 667.2 807.8 C 710 810 753 821 795.8 822 C 838.7 823 881.3 814 924.2 813.3 C 967 812.7 1010 820.3 1052.8 820.8 C 1095.7 821.3 1138.3 814.7 1181.2 817 C 1224 819.3 1267 830.7 1288.5 836.3 L 1310 842 L 1310 911 L 1288.5 911 C 1267 911 1224 911 1181.2 911 C 1138.3 911 1095.7 911 1052.8 911 C 1010 911 967 911 924.2 911 C 881.3 911 838.7 911 795.8 911 C 753 911 710 911 667.2 911 C 624.3 911 581.7 911 538.8 911 C 496 911 453 911 431.5 911 L 410 911 L 410 801 Z " fill="rgb(31,65,52)"/><path d=" M 410 882 L 431.5 878.8 C 453 875.7 496 869.3 538.8 867.2 C 581.7 865 624.3 867 667.2 864.2 C 710 861.3 753 853.7 795.8 850.7 C 838.7 847.7 881.3 849.3 924.2 855.2 C 967 861 1010 871 1052.8 870.3 C 1095.7 869.7 1138.3 858.3 1181.2 851.3 C 1224 844.3 1267 841.7 1288.5 840.3 L 1310 839 L 1310 911 L 1288.5 911 C 1267 911 1224 911 1181.2 911 C 1138.3 911 1095.7 911 1052.8 911 C 1010 911 967 911 924.2 911 C 881.3 911 838.7 911 795.8 911 C 753 911 710 911 667.2 911 C 624.3 911 581.7 911 538.8 911 C 496 911 453 911 431.5 911 L 410 911 L 410 882 Z " fill="rgb(8,28,21)"/></g></svg>