<svg id="visual" viewBox="0 0 900 600" width="900" height="600" xmlns="http://www.w3.org/2000/svg" xmlns:xlink="http://www.w3.org/1999/xlink" version="1.1"><rect x="0" y="0" width="900" height="600" fill="#CAD2C5"></rect><path d="M0 168L21.5 163.8C43 159.7 86 151.3 128.8 151.8C171.7 152.3 214.3 161.7 257.2 155.7C300 149.7 343 128.3 385.8 126C428.7 123.7 471.3 140.3 514.2 151.2C557 162 600 167 642.8 165C685.7 163 728.3 154 771.2 158C814 162 857 179 878.5 187.5L900 196L900 0L878.5 0C857 0 814 0 771.2 0C728.3 0 685.7 0 642.8 0C600 0 557 0 514.2 0C471.3 0 428.7 0 385.8 0C343 0 300 0 257.2 0C214.3 0 171.7 0 128.8 0C86 0 43 0 21.5 0L0 0Z" fill="#40916C" stroke-linecap="round" stroke-linejoin="miter"></path></svg>