<?xml version="1.0" encoding="UTF-8" standalone="no"?><!-- Generator: Gravit.io --><svg xmlns="http://www.w3.org/2000/svg" xmlns:xlink="http://www.w3.org/1999/xlink" style="isolation:isolate" viewBox="-214 156 900 196" width="900pt" height="196pt"><defs><clipPath id="_clipPath_2wLqxgQWGgFwS6k5MlykKsCs7oebSHGH"><rect x="-214" y="156" width="900" height="196"/></clipPath></defs><g clip-path="url(#_clipPath_2wLqxgQWGgFwS6k5MlykKsCs7oebSHGH)"><g><path d=" M -214 324 L -192.5 319.8 C -171 315.7 -128 307.3 -85.2 307.8 C -42.3 308.3 0.3 317.7 43.2 311.7 C 86 305.7 129 284.3 171.8 282 C 214.7 279.7 257.3 296.3 300.2 307.2 C 343 318 386 323 428.8 321 C 471.7 319 514.3 310 557.2 314 C 600 318 643 335 664.5 343.5 L 686 352 L 686 156 L 664.5 156 C 643 156 600 156 557.2 156 C 514.3 156 471.7 156 428.8 156 C 386 156 343 156 300.2 156 C 257.3 156 214.7 156 171.8 156 C 129 156 86 156 43.2 156 C 0.3 156 -42.3 156 -85.2 156 C -128 156 -171 156 -192.5 156 L -214 156 L -214 324 Z " fill="rgb(64,145,108)"/></g></g></svg>